<svg id="visual" viewBox="0 0 900 150" width="900" height="150" xmlns="http://www.w3.org/2000/svg" xmlns:xlink="http://www.w3.org/1999/xlink" version="1.1"><path d="M0 108L90 112L180 108L270 102L360 109L450 108L540 104L630 104L720 90L810 99L900 99L900 151L810 151L720 151L630 151L540 151L450 151L360 151L270 151L180 151L90 151L0 151Z" fill="#155dfc"></path><path d="M0 124L90 108L180 110L270 121L360 106L450 117L540 123L630 115L720 118L810 105L900 127L900 151L810 151L720 151L630 151L540 151L450 151L360 151L270 151L180 151L90 151L0 151Z" fill="#eb90cf"></path><path d="M0 128L90 133L180 137L270 131L360 139L450 130L540 136L630 131L720 131L810 123L900 124L900 151L810 151L720 151L630 151L540 151L450 151L360 151L270 151L180 151L90 151L0 151Z" fill="#f5f4f4"></path></svg>